<svg width="1246" height="166" viewBox="0 0 1246 166" fill="none" xmlns="http://www.w3.org/2000/svg">
<path d="M0 43C0 29.7452 10.7452 19 24 19H104C117.255 19 128 29.7452 128 43V123C128 136.255 117.255 147 104 147H24C10.7452 147 0 136.255 0 123V43Z" fill="url(#paint0_linear_149_246)"/>
<path fill-rule="evenodd" clip-rule="evenodd" d="M87.3108 57.0586H53.8647V43H101.5V90.1966H87.3108V57.0586Z" fill="white"/>
<path fill-rule="evenodd" clip-rule="evenodd" d="M61.185 85.0328C59.0183 83.5984 56.4709 82.8327 53.865 82.8327V68.7742C59.2773 68.7742 64.568 70.3643 69.0682 73.3435C73.5683 76.3227 77.0758 80.5572 79.147 85.5115C81.2181 90.4657 81.7601 95.9172 80.7042 101.177C79.6483 106.436 77.042 111.267 73.2149 115.059C69.3879 118.851 64.5119 121.433 59.2036 122.479C53.8953 123.525 48.3931 122.988 43.3928 120.936C38.3925 118.884 34.1187 115.409 31.1118 110.95C28.1049 106.492 26.5 101.25 26.5 95.8871L40.6893 95.8871C40.6892 98.469 41.462 100.993 42.9098 103.14C44.3575 105.287 46.4153 106.96 48.8228 107.948C51.2304 108.936 53.8796 109.194 56.4354 108.691C58.9913 108.187 61.339 106.944 63.1816 105.118C65.0243 103.292 66.2792 100.966 66.7876 98.4339C67.2959 95.9016 67.035 93.2768 66.0378 90.8914C65.0405 88.5061 63.3518 86.4672 61.185 85.0328Z" fill="white"/>
<path fill-rule="evenodd" clip-rule="evenodd" d="M61.185 85.0328C59.0183 83.5984 56.4709 82.8327 53.865 82.8327V68.7742C59.2773 68.7742 64.568 70.3643 69.0682 73.3435C73.5683 76.3227 77.0758 80.5572 79.147 85.5115C81.2181 90.4657 81.7601 95.9172 80.7042 101.177C79.6483 106.436 77.042 111.267 73.2149 115.059C69.3879 118.851 64.5119 121.433 59.2036 122.479C53.8953 123.525 48.3931 122.988 43.3928 120.936C38.3925 118.884 34.1187 115.409 31.1118 110.95C28.1049 106.492 26.5 101.25 26.5 95.8871L40.6893 95.8871C40.6892 98.469 41.462 100.993 42.9098 103.14C44.3575 105.287 46.4153 106.96 48.8228 107.948C51.2304 108.936 53.8796 109.194 56.4354 108.691C58.9913 108.187 61.339 106.944 63.1816 105.118C65.0243 103.292 66.2792 100.966 66.7876 98.4339C67.2959 95.9016 67.035 93.2768 66.0378 90.8914C65.0405 88.5061 63.3518 86.4672 61.185 85.0328Z" fill="white"/>
<path d="M26.5 78C26.5 73.0294 30.5294 69 35.5 69C40.4706 69 44.5 73.0294 44.5 78C44.5 82.9706 40.4706 87 35.5 87C30.5294 87 26.5 82.9706 26.5 78Z" fill="white"/>
<path d="M247 126H227.812L193.25 67V126H175.312V36.375H194.5L229.062 95.4375V36.375H247V126ZM310.188 118.188C308.812 119.438 307.333 120.625 305.75 121.75C304.208 122.833 302.583 123.792 300.875 124.625C299.167 125.417 297.396 126.042 295.562 126.5C293.771 127 291.938 127.25 290.062 127.25C285.938 127.25 282.062 126.521 278.438 125.062C274.812 123.604 271.625 121.542 268.875 118.875C266.167 116.167 264.021 112.896 262.438 109.062C260.896 105.188 260.125 100.854 260.125 96.0625V59.0625H277.125V96.0625C277.125 98.3125 277.458 100.333 278.125 102.125C278.833 103.875 279.771 105.354 280.938 106.562C282.104 107.771 283.458 108.688 285 109.312C286.583 109.938 288.271 110.25 290.062 110.25C291.812 110.25 293.458 109.854 295 109.062C296.583 108.229 297.958 107.146 299.125 105.812C300.292 104.479 301.208 102.979 301.875 101.312C302.542 99.6042 302.875 97.8542 302.875 96.0625V59.0625H319.938V126H315.812L310.188 118.188ZM352 126L326.5 59.0625H345.938L360.562 100.812L375.125 59.0625H394.625L369.125 126H352ZM463.812 91.9375C463.812 96.9375 462.917 101.604 461.125 105.938C459.333 110.229 456.896 113.958 453.812 117.125C450.729 120.25 447.104 122.729 442.938 124.562C438.812 126.354 434.375 127.25 429.625 127.25C424.917 127.25 420.479 126.354 416.312 124.562C412.188 122.729 408.562 120.25 405.438 117.125C402.354 113.958 399.917 110.229 398.125 105.938C396.333 101.604 395.438 96.9375 395.438 91.9375C395.438 86.8542 396.333 82.1458 398.125 77.8125C399.917 73.4792 402.354 69.75 405.438 66.625C408.562 63.4583 412.188 60.9792 416.312 59.1875C420.479 57.3958 424.917 56.5 429.625 56.5C434.375 56.5 438.812 57.3542 442.938 59.0625C447.104 60.7292 450.729 63.125 453.812 66.25C456.896 69.3333 459.333 73.0625 461.125 77.4375C462.917 81.7708 463.812 86.6042 463.812 91.9375ZM446.625 91.9375C446.625 89.1875 446.167 86.7083 445.25 84.5C444.375 82.25 443.167 80.3333 441.625 78.75C440.083 77.125 438.271 75.8958 436.188 75.0625C434.146 74.1875 431.958 73.75 429.625 73.75C427.292 73.75 425.083 74.1875 423 75.0625C420.958 75.8958 419.167 77.125 417.625 78.75C416.125 80.3333 414.938 82.25 414.062 84.5C413.188 86.7083 412.75 89.1875 412.75 91.9375C412.75 94.5208 413.188 96.9167 414.062 99.125C414.938 101.333 416.125 103.25 417.625 104.875C419.167 106.5 420.958 107.792 423 108.75C425.083 109.667 427.292 110.125 429.625 110.125C431.958 110.125 434.146 109.688 436.188 108.812C438.271 107.938 440.083 106.708 441.625 105.125C443.167 103.542 444.375 101.625 445.25 99.375C446.167 97.125 446.625 94.6458 446.625 91.9375ZM558.375 126H541.375V83.5C541.375 82.3333 541.146 81.2292 540.688 80.1875C540.271 79.1458 539.667 78.2292 538.875 77.4375C538.083 76.6458 537.167 76.0417 536.125 75.625C535.083 75.1667 533.979 74.9375 532.812 74.9375C531.646 74.9375 530.542 75.1667 529.5 75.625C528.5 76.0417 527.604 76.6458 526.812 77.4375C526.062 78.2292 525.458 79.1458 525 80.1875C524.583 81.2292 524.375 82.3333 524.375 83.5V126H507.312V83.5C507.312 82.3333 507.083 81.2292 506.625 80.1875C506.208 79.1458 505.604 78.2292 504.812 77.4375C504.021 76.6458 503.104 76.0417 502.062 75.625C501.021 75.1667 499.917 74.9375 498.75 74.9375C497.583 74.9375 496.479 75.1667 495.438 75.625C494.438 76.0417 493.542 76.6458 492.75 77.4375C492 78.2292 491.396 79.1458 490.938 80.1875C490.521 81.2292 490.312 82.3333 490.312 83.5V126H473.25V59.0625H477.375L482 64.1875C484.375 62.1875 486.979 60.6458 489.812 59.5625C492.688 58.4375 495.667 57.875 498.75 57.875C501.875 57.875 504.917 58.4583 507.875 59.625C510.875 60.7917 513.5 62.8125 515.75 65.6875C516.792 64.2708 517.979 63.0625 519.312 62.0625C520.646 61.0625 522.042 60.25 523.5 59.625C525 59 526.542 58.5625 528.125 58.3125C529.708 58.0208 531.271 57.875 532.812 57.875C536.354 57.875 539.667 58.5417 542.75 59.875C545.875 61.2083 548.583 63.0417 550.875 65.375C553.208 67.6667 555.042 70.375 556.375 73.5C557.708 76.625 558.375 79.9583 558.375 83.5V126ZM635.688 126H631.562L624.938 116.812C623.312 118.271 621.583 119.646 619.75 120.938C617.958 122.188 616.062 123.292 614.062 124.25C612.062 125.167 610 125.896 607.875 126.438C605.792 126.979 603.667 127.25 601.5 127.25C596.792 127.25 592.354 126.458 588.188 124.875C584.062 123.292 580.438 121 577.312 118C574.229 114.958 571.792 111.25 570 106.875C568.208 102.5 567.312 97.5208 567.312 91.9375C567.312 86.7292 568.208 81.9583 570 77.625C571.792 73.25 574.229 69.5 577.312 66.375C580.438 63.25 584.062 60.8333 588.188 59.125C592.354 57.375 596.792 56.5 601.5 56.5C603.667 56.5 605.812 56.7708 607.938 57.3125C610.062 57.8542 612.125 58.6042 614.125 59.5625C616.125 60.5208 618.021 61.6458 619.812 62.9375C621.646 64.2292 623.354 65.625 624.938 67.125L631.562 59.1875H635.688V126ZM618.5 91.9375C618.5 89.6042 618.042 87.3542 617.125 85.1875C616.25 82.9792 615.042 81.0417 613.5 79.375C611.958 77.6667 610.146 76.3125 608.062 75.3125C606.021 74.2708 603.833 73.75 601.5 73.75C599.167 73.75 596.958 74.1458 594.875 74.9375C592.833 75.7292 591.042 76.8958 589.5 78.4375C588 79.9792 586.812 81.8958 585.938 84.1875C585.062 86.4375 584.625 89.0208 584.625 91.9375C584.625 94.8542 585.062 97.4583 585.938 99.75C586.812 102 588 103.896 589.5 105.438C591.042 106.979 592.833 108.146 594.875 108.938C596.958 109.729 599.167 110.125 601.5 110.125C603.833 110.125 606.021 109.625 608.062 108.625C610.146 107.583 611.958 106.229 613.5 104.562C615.042 102.854 616.25 100.917 617.125 98.75C618.042 96.5417 618.5 94.2708 618.5 91.9375ZM681.188 63.25C681.188 59.5417 681.896 56.0625 683.312 52.8125C684.729 49.5625 686.646 46.7292 689.062 44.3125C691.521 41.8542 694.375 39.9167 697.625 38.5C700.875 37.0833 704.354 36.375 708.062 36.375H749.188V54.3125H708.062C706.812 54.3125 705.646 54.5417 704.562 55C703.479 55.4583 702.521 56.1042 701.688 56.9375C700.896 57.7292 700.271 58.6667 699.812 59.75C699.354 60.8333 699.125 62 699.125 63.25C699.125 64.5 699.354 65.6875 699.812 66.8125C700.271 67.8958 700.896 68.8542 701.688 69.6875C702.521 70.4792 703.479 71.1042 704.562 71.5625C705.646 72.0208 706.812 72.25 708.062 72.25H726C729.708 72.25 733.188 72.9583 736.438 74.375C739.729 75.75 742.583 77.6667 745 80.125C747.458 82.5417 749.375 85.3958 750.75 88.6875C752.167 91.9375 752.875 95.4167 752.875 99.125C752.875 102.833 752.167 106.312 750.75 109.562C749.375 112.812 747.458 115.667 745 118.125C742.583 120.542 739.729 122.458 736.438 123.875C733.188 125.292 729.708 126 726 126H686.188V108.062H726C727.25 108.062 728.417 107.833 729.5 107.375C730.583 106.917 731.521 106.292 732.312 105.5C733.146 104.667 733.792 103.708 734.25 102.625C734.708 101.542 734.938 100.375 734.938 99.125C734.938 97.875 734.708 96.7083 734.25 95.625C733.792 94.5417 733.146 93.6042 732.312 92.8125C731.521 91.9792 730.583 91.3333 729.5 90.875C728.417 90.4167 727.25 90.1875 726 90.1875H708.062C704.354 90.1875 700.875 89.4792 697.625 88.0625C694.375 86.6458 691.521 84.7292 689.062 82.3125C686.646 79.8542 684.729 77 683.312 73.75C681.896 70.4583 681.188 66.9583 681.188 63.25ZM827.562 91.9375C827.562 96.9375 826.667 101.604 824.875 105.938C823.083 110.229 820.646 113.958 817.562 117.125C814.479 120.25 810.854 122.729 806.688 124.562C802.562 126.354 798.125 127.25 793.375 127.25C788.667 127.25 784.229 126.354 780.062 124.562C775.938 122.729 772.312 120.25 769.188 117.125C766.104 113.958 763.667 110.229 761.875 105.938C760.083 101.604 759.188 96.9375 759.188 91.9375C759.188 86.8542 760.083 82.1458 761.875 77.8125C763.667 73.4792 766.104 69.75 769.188 66.625C772.312 63.4583 775.938 60.9792 780.062 59.1875C784.229 57.3958 788.667 56.5 793.375 56.5C798.125 56.5 802.562 57.3542 806.688 59.0625C810.854 60.7292 814.479 63.125 817.562 66.25C820.646 69.3333 823.083 73.0625 824.875 77.4375C826.667 81.7708 827.562 86.6042 827.562 91.9375ZM810.375 91.9375C810.375 89.1875 809.917 86.7083 809 84.5C808.125 82.25 806.917 80.3333 805.375 78.75C803.833 77.125 802.021 75.8958 799.938 75.0625C797.896 74.1875 795.708 73.75 793.375 73.75C791.042 73.75 788.833 74.1875 786.75 75.0625C784.708 75.8958 782.917 77.125 781.375 78.75C779.875 80.3333 778.688 82.25 777.812 84.5C776.938 86.7083 776.5 89.1875 776.5 91.9375C776.5 94.5208 776.938 96.9167 777.812 99.125C778.688 101.333 779.875 103.25 781.375 104.875C782.917 106.5 784.708 107.792 786.75 108.75C788.833 109.667 791.042 110.125 793.375 110.125C795.708 110.125 797.896 109.688 799.938 108.812C802.021 107.938 803.833 106.708 805.375 105.125C806.917 103.542 808.125 101.625 809 99.375C809.917 97.125 810.375 94.6458 810.375 91.9375ZM854.188 126H837V32.4375H854.188V126ZM916.438 118.188C915.062 119.438 913.583 120.625 912 121.75C910.458 122.833 908.833 123.792 907.125 124.625C905.417 125.417 903.646 126.042 901.812 126.5C900.021 127 898.188 127.25 896.312 127.25C892.188 127.25 888.312 126.521 884.688 125.062C881.062 123.604 877.875 121.542 875.125 118.875C872.417 116.167 870.271 112.896 868.688 109.062C867.146 105.188 866.375 100.854 866.375 96.0625V59.0625H883.375V96.0625C883.375 98.3125 883.708 100.333 884.375 102.125C885.083 103.875 886.021 105.354 887.188 106.562C888.354 107.771 889.708 108.688 891.25 109.312C892.833 109.938 894.521 110.25 896.312 110.25C898.062 110.25 899.708 109.854 901.25 109.062C902.833 108.229 904.208 107.146 905.375 105.812C906.542 104.479 907.458 102.979 908.125 101.312C908.792 99.6042 909.125 97.8542 909.125 96.0625V59.0625H926.188V126H922.062L916.438 118.188ZM972.812 126C968.688 126 964.812 125.229 961.188 123.688C957.562 122.104 954.375 119.958 951.625 117.25C948.917 114.5 946.771 111.312 945.188 107.688C943.646 104.062 942.875 100.188 942.875 96.0625V76.1875H934.562V59.1875H942.875V32.4375H959.875V59.1875H985.75V76.1875H959.875V96.0625C959.875 97.8542 960.208 99.5417 960.875 101.125C961.542 102.667 962.458 104.021 963.625 105.188C964.792 106.354 966.167 107.292 967.75 108C969.333 108.667 971.021 109 972.812 109H985.75V126H972.812ZM1015.5 40.875C1015.5 42.4583 1015.19 43.9375 1014.56 45.3125C1013.98 46.6875 1013.17 47.8958 1012.12 48.9375C1011.08 49.9375 1009.85 50.75 1008.44 51.375C1007.06 51.9583 1005.58 52.25 1004 52.25C1002.42 52.25 1000.92 51.9583 999.5 51.375C998.125 50.75 996.917 49.9375 995.875 48.9375C994.875 47.8958 994.062 46.6875 993.438 45.3125C992.854 43.9375 992.562 42.4583 992.562 40.875C992.562 39.3333 992.854 37.875 993.438 36.5C994.062 35.0833 994.875 33.875 995.875 32.875C996.917 31.8333 998.125 31.0208 999.5 30.4375C1000.92 29.8125 1002.42 29.5 1004 29.5C1005.58 29.5 1007.06 29.8125 1008.44 30.4375C1009.85 31.0208 1011.08 31.8333 1012.12 32.875C1013.17 33.875 1013.98 35.0833 1014.56 36.5C1015.19 37.875 1015.5 39.3333 1015.5 40.875ZM1012.56 126H995.375V59.0625H1012.56V126ZM1090.31 91.9375C1090.31 96.9375 1089.42 101.604 1087.62 105.938C1085.83 110.229 1083.4 113.958 1080.31 117.125C1077.23 120.25 1073.6 122.729 1069.44 124.562C1065.31 126.354 1060.88 127.25 1056.12 127.25C1051.42 127.25 1046.98 126.354 1042.81 124.562C1038.69 122.729 1035.06 120.25 1031.94 117.125C1028.85 113.958 1026.42 110.229 1024.62 105.938C1022.83 101.604 1021.94 96.9375 1021.94 91.9375C1021.94 86.8542 1022.83 82.1458 1024.62 77.8125C1026.42 73.4792 1028.85 69.75 1031.94 66.625C1035.06 63.4583 1038.69 60.9792 1042.81 59.1875C1046.98 57.3958 1051.42 56.5 1056.12 56.5C1060.88 56.5 1065.31 57.3542 1069.44 59.0625C1073.6 60.7292 1077.23 63.125 1080.31 66.25C1083.4 69.3333 1085.83 73.0625 1087.62 77.4375C1089.42 81.7708 1090.31 86.6042 1090.31 91.9375ZM1073.12 91.9375C1073.12 89.1875 1072.67 86.7083 1071.75 84.5C1070.88 82.25 1069.67 80.3333 1068.12 78.75C1066.58 77.125 1064.77 75.8958 1062.69 75.0625C1060.65 74.1875 1058.46 73.75 1056.12 73.75C1053.79 73.75 1051.58 74.1875 1049.5 75.0625C1047.46 75.8958 1045.67 77.125 1044.12 78.75C1042.62 80.3333 1041.44 82.25 1040.56 84.5C1039.69 86.7083 1039.25 89.1875 1039.25 91.9375C1039.25 94.5208 1039.69 96.9167 1040.56 99.125C1041.44 101.333 1042.62 103.25 1044.12 104.875C1045.67 106.5 1047.46 107.792 1049.5 108.75C1051.58 109.667 1053.79 110.125 1056.12 110.125C1058.46 110.125 1060.65 109.688 1062.69 108.812C1064.77 107.938 1066.58 106.708 1068.12 105.125C1069.67 103.542 1070.88 101.625 1071.75 99.375C1072.67 97.125 1073.12 94.6458 1073.12 91.9375ZM1116.81 126H1099.75V59.0625H1103.88L1109.5 65.5625C1112.25 63.0625 1115.35 61.1458 1118.81 59.8125C1122.31 58.4375 1125.96 57.75 1129.75 57.75C1133.83 57.75 1137.69 58.5417 1141.31 60.125C1144.94 61.6667 1148.1 63.8125 1150.81 66.5625C1153.52 69.2708 1155.65 72.4583 1157.19 76.125C1158.77 79.75 1159.56 83.625 1159.56 87.75V126H1142.5V87.75C1142.5 86 1142.17 84.3542 1141.5 82.8125C1140.83 81.2292 1139.92 79.8542 1138.75 78.6875C1137.58 77.5208 1136.23 76.6042 1134.69 75.9375C1133.15 75.2708 1131.5 74.9375 1129.75 74.9375C1127.96 74.9375 1126.27 75.2708 1124.69 75.9375C1123.1 76.6042 1121.73 77.5208 1120.56 78.6875C1119.4 79.8542 1118.48 81.2292 1117.81 82.8125C1117.15 84.3542 1116.81 86 1116.81 87.75V126ZM1208.5 126H1169.5V109H1208.5C1209.67 109 1210.67 108.583 1211.5 107.75C1212.33 106.917 1212.75 105.917 1212.75 104.75C1212.75 103.542 1212.33 102.75 1211.5 102.375C1210.67 102 1209.67 101.812 1208.5 101.812H1190.75C1187.79 101.812 1185.02 101.25 1182.44 100.125C1179.85 99 1177.6 97.4792 1175.69 95.5625C1173.77 93.6042 1172.25 91.3333 1171.12 88.75C1170.04 86.1667 1169.5 83.3958 1169.5 80.4375C1169.5 77.4792 1170.04 74.7083 1171.12 72.125C1172.25 69.5417 1173.77 67.2917 1175.69 65.375C1177.6 63.4583 1179.85 61.9583 1182.44 60.875C1185.02 59.75 1187.79 59.1875 1190.75 59.1875H1225.31V76.1875H1190.75C1189.58 76.1875 1188.58 76.6042 1187.75 77.4375C1186.92 78.2708 1186.5 79.2708 1186.5 80.4375C1186.5 81.6458 1186.92 82.6875 1187.75 83.5625C1188.58 84.3958 1189.58 84.8125 1190.75 84.8125H1208.5C1211.42 84.8125 1214.17 85.3125 1216.75 86.3125C1219.33 87.2708 1221.58 88.625 1223.5 90.375C1225.42 92.125 1226.94 94.2292 1228.06 96.6875C1229.19 99.1458 1229.75 101.833 1229.75 104.75C1229.75 107.708 1229.19 110.479 1228.06 113.062C1226.94 115.604 1225.42 117.854 1223.5 119.812C1221.58 121.729 1219.33 123.25 1216.75 124.375C1214.17 125.458 1211.42 126 1208.5 126Z" fill="white"/>
<defs>
<linearGradient id="paint0_linear_149_246" x1="128" y1="19" x2="0" y2="147" gradientUnits="userSpaceOnUse">
<stop stop-color="#748CAB"/>
<stop offset="1" stop-color="#1D2D44"/>
</linearGradient>
</defs>
</svg>
